<svg width="41" height="42" viewBox="0 0 41 42" fill="none" xmlns="http://www.w3.org/2000/svg">
<path d="M5.59035 6.87035C4.0467 6.87035 2.7962 8.09419 2.7962 9.60504V31.4703C2.7962 32.9812 4.0467 34.205 5.59035 34.205H35.4096C36.9533 34.205 38.2038 32.9812 38.2038 31.4703V9.60504C38.2038 8.09419 36.9533 6.87035 35.4096 6.87035H5.59035ZM35.4096 4.1377C38.497 4.1377 41 6.58539 41 9.60504V31.4703C41 34.49 38.497 36.9377 35.4096 36.9377H5.59035C2.50305 36.9377 0 34.49 0 31.4703V9.60504C0 6.58539 2.50305 4.1377 5.59035 4.1377H35.4096ZM16.7423 26.9603H8.2C8.01838 26.9582 7.83811 26.9918 7.66951 27.0594C7.50092 27.127 7.3473 27.2271 7.21744 27.3541C7.08758 27.4811 6.98404 27.6325 6.91274 27.7995C6.84144 27.9666 6.80377 28.1461 6.8019 28.3277C6.8019 29.0821 7.42715 29.695 8.2 29.695H16.7423C16.9238 29.6969 17.1038 29.6631 17.2722 29.5954C17.4406 29.5277 17.5939 29.4275 17.7236 29.3005C17.8532 29.1736 17.9566 29.0223 18.0278 28.8554C18.0989 28.6884 18.1365 28.5091 18.1384 28.3277C18.1365 28.1462 18.0989 27.9669 18.0278 27.8C17.9566 27.6331 17.8532 27.4818 17.7236 27.3549C17.5939 27.2279 17.4406 27.1277 17.2722 27.06C17.1038 26.9923 16.9238 26.9585 16.7423 26.9603ZM28.1875 10.9703C25.0633 10.9703 22.5192 13.4119 22.5192 16.4377C22.5192 18.0223 23.2162 19.4471 24.3314 20.4454C22.2199 21.6918 20.8116 23.9366 20.8116 26.5011C20.8116 27.233 20.9264 27.9525 21.1499 28.6393C21.3856 29.3568 22.1728 29.7545 22.9067 29.5249C23.0799 29.473 23.241 29.3871 23.3807 29.2723C23.5203 29.1574 23.6357 29.0159 23.7201 28.856C23.8044 28.6961 23.8561 28.5209 23.872 28.3408C23.8879 28.1607 23.8678 27.9792 23.8128 27.807C23.6743 27.3857 23.6051 26.9447 23.6078 26.5011C23.6078 24.0924 25.6516 22.1285 28.1875 22.1285C30.7233 22.1285 32.7692 24.0924 32.7692 26.5011C32.7692 26.8565 32.7262 27.2022 32.6401 27.5384C32.5969 27.7142 32.589 27.8967 32.617 28.0755C32.645 28.2542 32.7082 28.4257 32.803 28.5798C32.8978 28.7339 33.0223 28.8677 33.1692 28.9733C33.3162 29.0788 33.4826 29.1542 33.659 29.1948C34.0155 29.2843 34.3929 29.2299 34.7097 29.0435C35.0265 28.8571 35.2573 28.5536 35.3522 28.1985C35.493 27.6437 35.5634 27.0779 35.5634 26.5011C35.5634 23.9366 34.155 21.6918 32.0435 20.4413C33.1587 19.4471 33.8557 18.0223 33.8557 16.4377C33.8557 13.4119 31.3137 10.9703 28.1875 10.9703ZM16.7423 19.7853H8.2C8.01838 19.7832 7.83811 19.8168 7.66951 19.8844C7.50092 19.952 7.3473 20.0521 7.21744 20.1791C7.08758 20.3061 6.98404 20.4575 6.91274 20.6245C6.84144 20.7916 6.80377 20.9711 6.8019 21.1527C6.8019 21.9071 7.42715 22.52 8.2 22.52H16.7423C16.9238 22.5219 17.1038 22.4881 17.2722 22.4204C17.4406 22.3527 17.5939 22.2525 17.7236 22.1255C17.8532 21.9986 17.9566 21.8473 18.0278 21.6804C18.0989 21.5134 18.1365 21.3341 18.1384 21.1527C18.1365 20.9712 18.0989 20.7919 18.0278 20.625C17.9566 20.4581 17.8532 20.3068 17.7236 20.1799C17.5939 20.0529 17.4406 19.9527 17.2722 19.885C17.1038 19.8173 16.9238 19.7835 16.7423 19.7853ZM28.1875 13.705C29.7803 13.705 31.0616 14.935 31.0616 16.4377C31.0616 17.9424 29.7803 19.1703 28.1875 19.1703C26.5947 19.1703 25.3134 17.9403 25.3134 16.4377C25.3134 14.933 26.5947 13.705 28.1875 13.705ZM16.7423 12.6103H8.2C8.01838 12.6082 7.83811 12.6418 7.66951 12.7094C7.50092 12.777 7.3473 12.8771 7.21744 13.0041C7.08758 13.1311 6.98404 13.2825 6.91274 13.4495C6.84144 13.6166 6.80377 13.7961 6.8019 13.9777C6.8019 14.7321 7.42715 15.345 8.2 15.345H16.7423C16.9238 15.3469 17.1038 15.3131 17.2722 15.2454C17.4406 15.1777 17.5939 15.0775 17.7236 14.9505C17.8532 14.8236 17.9566 14.6723 18.0278 14.5054C18.0989 14.3384 18.1365 14.1591 18.1384 13.9777C18.1365 13.7962 18.0989 13.6169 18.0278 13.45C17.9566 13.2831 17.8532 13.1318 17.7236 13.0049C17.5939 12.8779 17.4406 12.7777 17.2722 12.71C17.1038 12.6423 16.9238 12.6085 16.7423 12.6103Z" fill="#052EC0"/>
</svg>
