<svg width="91" height="91" viewBox="0 0 91 91" fill="none" xmlns="http://www.w3.org/2000/svg">
<g clip-path="url(#clip0_1_20)">
<path d="M-3.3125 10.8438C-3.3125 10.0895 -3.01289 9.36622 -2.47958 8.83291C-1.94628 8.29961 -1.22296 8 -0.46875 8H62.0938C62.848 8 63.5713 8.29961 64.1046 8.83291C64.6379 9.36622 64.9375 10.0895 64.9375 10.8438C64.9375 11.598 64.6379 12.3213 64.1046 12.8546C63.5713 13.3879 62.848 13.6875 62.0938 13.6875H53.5625C53.5625 15.2686 52.4136 16.5312 50.9747 16.5312H49.2969V25.3184C51.7141 25.9725 53.5056 28.2191 53.5056 30.8353C53.5056 32.8146 52.4819 34.5663 50.9377 35.5844L53.554 39.2812H66.3196C66.7013 39.2782 67.0688 39.4257 67.3425 39.6919C67.6161 39.9581 67.7738 40.3214 67.7812 40.7031C67.7813 40.8908 67.7441 41.0766 67.6719 41.2499C67.5998 41.4231 67.494 41.5804 67.3608 41.7126C67.2275 41.8448 67.0694 41.9493 66.8956 42.02C66.7218 42.0908 66.5357 42.1265 66.348 42.125H64.9375V50.6562H66.3196C66.7013 50.6532 67.0688 50.8007 67.3425 51.0669C67.6161 51.3331 67.7738 51.6964 67.7812 52.0781C67.7738 52.4598 67.6161 52.8231 67.3425 53.0893C67.0688 53.3555 66.7013 53.5031 66.3196 53.5H63.4246C63.4651 53.7602 63.431 54.0265 63.3263 54.268C63.2216 54.5096 63.0506 54.7166 62.8331 54.865C62.5772 55.0356 62.2928 55.1209 62.0084 55.1209C61.5534 55.1209 61.1269 54.9219 60.8425 54.5238L60.1173 53.5H35.5189L34.7938 54.5238C34.5094 54.9219 34.0828 55.1209 33.6278 55.1209C33.3434 55.1209 33.0591 55.0356 32.8031 54.865C32.5856 54.7166 32.4147 54.5096 32.31 54.268C32.2053 54.0265 32.1712 53.7602 32.2116 53.5H29.4304C29.0487 53.5031 28.6812 53.3555 28.4075 53.0893C28.1339 52.8231 27.9762 52.4598 27.9688 52.0781C27.9688 51.2989 28.6285 50.6562 29.4304 50.6562H30.8125V42.125H29.4304C29.0487 42.1281 28.6812 41.9805 28.4075 41.7143C28.1339 41.4481 27.9762 41.0848 27.9688 40.7031C27.9688 39.9239 28.6285 39.2812 29.4304 39.2812H42.0851L44.7014 35.5844C43.9129 35.0678 43.2651 34.3634 42.8164 33.5344C42.3677 32.7054 42.132 31.7779 42.1306 30.8353C42.1306 30.0391 42.7847 29.4134 43.5525 29.4134C44.3487 29.4134 44.9744 30.0391 44.9744 30.8353C44.9744 31.8591 45.5232 32.7634 46.3422 33.2639L46.5839 32.9226C46.6464 32.8186 46.7219 32.7231 46.8086 32.6382C46.941 32.5054 47.0983 32.4001 47.2716 32.3284C47.4449 32.2566 47.6306 32.2199 47.8181 32.2202C48.1878 32.2174 48.5575 32.3624 48.8277 32.6382C48.9154 32.7229 48.9918 32.8185 49.0552 32.9226L49.294 33.2639C50.113 32.7634 50.6619 31.8591 50.6619 30.8353C50.6619 29.2712 49.4391 28.02 47.875 27.9916C47.3916 27.9916 46.9366 27.7356 46.6806 27.3375C46.5126 27.117 46.4226 26.8469 46.4247 26.5697C46.4247 26.4559 46.4247 26.3706 46.4531 26.2569V16.5312H44.7753C43.3364 16.5312 42.1875 15.2686 42.1875 13.6875H25.125V73.4062H27.2578C29.22 73.4062 30.8125 74.9987 30.8125 76.9609V79.0938H64.9659C68.0941 79.0938 70.625 81.6389 70.625 84.7812H-9C-9 81.6389 -6.46906 79.0938 -3.34094 79.0938H-0.46875V76.9609C-0.46875 74.9987 1.12375 73.4062 3.08594 73.4062H5.21875V13.6875H-0.46875C-1.22296 13.6875 -1.94628 13.3879 -2.47958 12.8546C-3.01289 12.3213 -3.3125 11.598 -3.3125 10.8438ZM8.0625 19.375V25.6057L20.5238 19.375H8.0625ZM9.81994 73.4062H22.2812V67.1756L9.81994 73.4062ZM20.5238 64.875H8.0625V71.1057L20.5238 64.875ZM9.81994 27.9062H22.2812V21.6756L9.81994 27.9062ZM20.5238 30.75H8.0625V36.9807L20.5238 30.75ZM9.81994 39.2812H22.2812V33.0506L9.81994 39.2812ZM20.5238 42.125H8.0625V48.3557L20.5238 42.125ZM9.81994 50.6562H22.2812V44.4256L9.81994 50.6562ZM20.5238 53.5H8.0625V59.7307L20.5238 53.5ZM9.81994 62.0312H22.2812V55.8006L9.81994 62.0312ZM47.5394 36.5171L45.5829 39.2812H50.0533L48.0968 36.5171C47.9111 36.5262 47.7251 36.5262 47.5394 36.5171ZM40.0718 42.125H33.6562V50.6562H34.0316L40.0718 42.125ZM37.5323 50.6562H58.104L52.0667 42.125H43.5696L37.5323 50.6562ZM55.5673 42.125L61.6046 50.6562H62.0938V42.125H55.5673Z" fill="#F2F3F5"/>
</g>
<defs>
<clipPath id="clip0_1_20">
<rect width="91" height="91" fill="white"/>
</clipPath>
</defs>
</svg>
