<svg width="78" height="78" viewBox="0 0 78 78" fill="none" xmlns="http://www.w3.org/2000/svg">
<path d="M73.125 14.625V9.75H65.8125V4.875H60.9375V9.75H58.5C55.8114 9.75 53.625 11.9389 53.625 14.625V19.5C53.625 22.1886 55.8114 24.375 58.5 24.375H68.25V29.25H53.625V34.125H60.9375V39H65.8125V34.125H68.25C70.9386 34.125 73.125 31.9386 73.125 29.25V24.375C73.125 21.6889 70.9386 19.5 68.25 19.5H58.5V14.625H73.125ZM58.5 48.75V53.625H64.8034L56.0625 62.3659L50.4757 56.7767C50.0193 56.3201 49.4004 56.0633 48.7549 56.0625H48.75C48.1044 56.0633 47.4855 56.3201 47.0291 56.7767L34.125 69.6784L37.5716 73.125L48.7524 61.9466L54.3392 67.5358C54.7963 67.9928 55.4162 68.2495 56.0625 68.2495C56.7088 68.2495 57.3287 67.9928 57.7858 67.5358L68.25 57.0716V63.375H73.125V48.75H58.5ZM9.75 73.125H4.875V60.9375C4.875 51.5288 12.5288 43.875 21.9375 43.875H36.5625C41.4107 43.875 46.0444 45.9469 49.2789 49.5617L45.6471 52.8133C44.5039 51.535 43.1039 50.5123 41.5384 49.8121C39.973 49.112 38.2774 48.75 36.5625 48.75H21.9375C15.2173 48.75 9.75 54.2173 9.75 60.9375V73.125ZM29.25 39C33.7753 39 38.1152 37.2023 41.315 34.0025C44.5148 30.8027 46.3125 26.4628 46.3125 21.9375C46.3125 17.4122 44.5148 13.0723 41.315 9.87249C38.1152 6.67265 33.7753 4.875 29.25 4.875C24.7247 4.875 20.3848 6.67265 17.185 9.87249C13.9852 13.0723 12.1875 17.4122 12.1875 21.9375C12.1875 26.4628 13.9852 30.8027 17.185 34.0025C20.3848 37.2023 24.7247 39 29.25 39ZM29.25 9.75C32.4823 9.75 35.5823 11.034 37.8679 13.3196C40.1535 15.6052 41.4375 18.7052 41.4375 21.9375C41.4375 25.1698 40.1535 28.2698 37.8679 30.5554C35.5823 32.841 32.4823 34.125 29.25 34.125C26.0177 34.125 22.9177 32.841 20.6321 30.5554C18.3465 28.2698 17.0625 25.1698 17.0625 21.9375C17.0625 18.7052 18.3465 15.6052 20.6321 13.3196C22.9177 11.034 26.0177 9.75 29.25 9.75Z" fill="#F2F3F5"/>
</svg>
