<svg width="91" height="91" viewBox="0 0 91 91" fill="none" xmlns="http://www.w3.org/2000/svg">
<path d="M45.026 75.8335C45.2788 75.8335 45.5316 75.7703 45.7844 75.6439C46.0372 75.5175 46.2267 75.3911 46.3531 75.2647L77.4448 44.1731C78.2031 43.4147 78.7567 42.5616 79.1055 41.6137C79.4544 40.6658 79.6275 39.7179 79.625 38.77C79.625 37.7588 79.4519 36.7945 79.1055 35.8769C78.7592 34.9593 78.2057 34.1542 77.4448 33.4616L61.3302 17.347C60.6351 16.5887 59.8287 16.0364 58.9111 15.6901C57.9935 15.3438 57.0317 15.1694 56.0257 15.1668C55.0778 15.1668 54.1298 15.3412 53.1819 15.6901C52.234 16.0389 51.3809 16.5912 50.6225 17.347L49.5798 18.3897L56.5944 25.4991C57.5423 26.3838 58.2375 27.395 58.6798 28.5325C59.1222 29.67 59.3434 30.8707 59.3434 32.1345C59.3434 34.7887 58.4435 37.0169 56.6437 38.8192C54.8439 40.6216 52.6157 41.5214 49.959 41.5189C48.6951 41.5189 47.4793 41.2977 46.3114 40.8554C45.1436 40.413 44.116 39.7495 43.2288 38.8647L36.1156 31.8502L19.5271 48.4387C19.3375 48.6283 19.1959 48.8343 19.1024 49.0567C19.0089 49.2792 18.9609 49.5155 18.9583 49.7658C18.9583 50.2713 19.1479 50.7301 19.5271 51.1422C19.9063 51.5542 20.3486 51.7589 20.8542 51.7564C21.1069 51.7564 21.3597 51.6932 21.6125 51.5668C21.8653 51.4404 22.0549 51.3141 22.1813 51.1877L35.0729 38.296L40.3813 43.6043L27.5844 56.496C27.3948 56.6856 27.2532 56.8916 27.1597 57.114C27.0662 57.3365 27.0182 57.5728 27.0156 57.8231C27.0156 58.3286 27.2052 58.771 27.5844 59.1502C27.9635 59.5293 28.4059 59.7189 28.9115 59.7189C29.1642 59.7189 29.417 59.6557 29.6698 59.5293C29.9226 59.4029 30.1122 59.2766 30.2385 59.1502L43.1302 46.3533L48.4385 51.6616L35.6417 64.5533C35.4521 64.6797 35.3105 64.8693 35.217 65.122C35.1235 65.3748 35.0754 65.6276 35.0729 65.8804C35.0729 66.3859 35.2625 66.8283 35.6417 67.2075C36.0208 67.5866 36.4632 67.7762 36.9688 67.7762C37.2215 67.7762 37.4591 67.7282 37.6816 67.6321C37.904 67.5361 38.1088 67.3945 38.2958 67.2075L51.1875 54.4106L56.4958 59.7189L43.6042 72.6106C43.4146 72.8002 43.273 73.0049 43.1795 73.2248C43.086 73.4447 43.0379 73.6824 43.0354 73.9377C43.0354 74.4432 43.2414 74.8856 43.6535 75.2647C44.0655 75.6439 44.523 75.8335 45.026 75.8335ZM44.9313 83.4168C42.5931 83.4168 40.5241 82.6433 38.7243 81.0963C36.9245 79.5493 35.8654 77.6055 35.5469 75.2647C33.3983 74.9488 31.5972 74.064 30.1438 72.6106C28.6903 71.1571 27.8056 69.3561 27.4896 67.2075C25.341 66.8915 23.5564 65.9916 22.1358 64.5078C20.7151 63.024 19.8456 61.2381 19.5271 59.1502C17.1257 58.8342 15.1667 57.7915 13.65 56.022C12.1333 54.2526 11.375 52.1672 11.375 49.7658C11.375 48.5019 11.6126 47.286 12.0878 46.1182C12.5631 44.9504 13.2418 43.9228 14.124 43.0356L36.1156 21.1387L48.5333 33.5564C48.6597 33.746 48.8493 33.8888 49.1021 33.9849C49.3549 34.0809 49.6076 34.1277 49.8604 34.1252C50.4292 34.1252 50.9031 33.952 51.2823 33.6057C51.6615 33.2594 51.851 32.8006 51.851 32.2293C51.851 31.9766 51.803 31.7238 51.707 31.471C51.6109 31.2182 51.4693 31.0286 51.2823 30.9022L37.7271 17.347C37.0319 16.5887 36.2268 16.0364 35.3118 15.6901C34.3967 15.3438 33.4324 15.1694 32.4188 15.1668C31.4708 15.1668 30.5229 15.3412 29.575 15.6901C28.6271 16.0389 27.774 16.5912 27.0156 17.347L13.65 30.8075C13.0813 31.3762 12.6073 32.0397 12.2281 32.7981C11.849 33.5564 11.5962 34.3147 11.4698 35.0731C11.3434 35.8314 11.3434 36.6062 11.4698 37.3974C11.5962 38.1886 11.849 38.9305 12.2281 39.6231L6.73021 45.121C5.65591 43.6675 4.86598 42.0725 4.36042 40.3359C3.85486 38.5993 3.66528 36.8451 3.79167 35.0731C3.91806 33.3011 4.36042 31.5797 5.11875 29.9088C5.87709 28.238 6.9198 26.7365 8.24688 25.4043L21.6125 12.0387C23.1292 10.5852 24.8203 9.47933 26.6858 8.721C28.5513 7.96266 30.4623 7.5835 32.4188 7.5835C34.3753 7.5835 36.2875 7.96266 38.1555 8.721C40.0236 9.47933 41.6818 10.5852 43.1302 12.0387L44.1729 13.0814L45.2156 12.0387C46.7323 10.5852 48.4234 9.47933 50.2889 8.721C52.1544 7.96266 54.0654 7.5835 56.0219 7.5835C57.9784 7.5835 59.8906 7.96266 61.7587 8.721C63.6267 9.47933 65.2849 10.5852 66.7333 12.0387L82.7531 28.0585C84.2066 29.512 85.3125 31.1866 86.0708 33.0825C86.8292 34.9783 87.2083 36.9057 87.2083 38.8647C87.2083 40.8238 86.8292 42.736 86.0708 44.6015C85.3125 46.467 84.2066 48.1253 82.7531 49.5762L51.6615 80.5731C50.7767 81.4578 49.7505 82.1529 48.5826 82.6585C47.4148 83.164 46.1977 83.4168 44.9313 83.4168Z" fill="#F2F3F5"/>
</svg>
