<svg width="41" height="42" viewBox="0 0 41 42" fill="none" xmlns="http://www.w3.org/2000/svg">
<path d="M19.9897 34.1049C20.2129 34.1049 20.4418 34.0548 20.6764 33.9546C20.911 33.8544 21.1006 33.7319 21.2453 33.5873L34.5635 20.2674C34.9928 19.8381 35.3242 19.3996 35.5577 18.952C35.79 18.5021 35.9062 18.009 35.9062 17.4726C35.9062 16.9293 35.79 16.402 35.5577 15.8907C35.3242 15.3782 34.9928 14.9112 34.5635 14.4898L28.1572 8.08359C27.7347 7.65423 27.3002 7.33933 26.8537 7.13888C26.4084 6.93844 25.9142 6.83822 25.3709 6.83822C24.8345 6.83822 24.3362 6.93844 23.8761 7.13888C23.416 7.33933 22.9827 7.65366 22.5761 8.08188L21.0864 9.57155L24.2468 12.7405C24.5862 13.0742 24.8396 13.4535 25.007 13.8783C25.1733 14.3031 25.2565 14.7341 25.2565 15.1715C25.2565 16.0609 24.9655 16.7967 24.3835 17.3786C23.8015 17.9606 23.0664 18.251 22.178 18.2499C21.7396 18.2499 21.3119 18.1833 20.8951 18.05C20.4782 17.9168 20.103 17.6833 19.7693 17.3496L16.5012 14.0935L9.12466 21.4684C8.95269 21.6415 8.82343 21.838 8.73687 22.0578C8.65032 22.2776 8.60704 22.4996 8.60704 22.724C8.60704 23.1272 8.7363 23.4592 8.99483 23.72C9.25222 23.9819 9.5825 24.1129 9.98566 24.1129C10.2089 24.1129 10.4378 24.0628 10.6724 23.9626C10.907 23.8612 11.0966 23.7382 11.2413 23.5935L16.655 18.1798L17.8645 19.3893L12.4593 24.8048C12.2862 24.9767 12.1564 25.1726 12.0698 25.3924C11.9844 25.6134 11.9417 25.8355 11.9417 26.0587C11.9417 26.4402 12.0761 26.7654 12.3449 27.0341C12.6137 27.3029 12.9388 27.4379 13.3203 27.439C13.5436 27.439 13.7725 27.3883 14.0071 27.287C14.2417 27.1856 14.4313 27.0632 14.576 26.9197L20.3843 21.1216L21.5938 22.3294L15.794 28.1377C15.6425 28.2824 15.5184 28.472 15.4216 28.7066C15.3236 28.9412 15.2747 29.1701 15.2747 29.3933C15.2747 29.7737 15.4096 30.0983 15.6795 30.3671C15.9483 30.6381 16.2735 30.7737 16.655 30.7737C16.8782 30.7737 17.1003 30.7304 17.3212 30.6438C17.5422 30.5573 17.7381 30.4275 17.9089 30.2543L23.7172 24.4545L24.9267 25.6641L19.1184 31.4724C18.9464 31.6455 18.8172 31.8533 18.7306 32.0959C18.6441 32.3385 18.6008 32.56 18.6008 32.7605C18.6008 33.1636 18.7426 33.4888 19.0262 33.7359C19.3097 33.9831 19.6309 34.1066 19.9897 34.1066M19.9794 35.815C19.1013 35.815 18.3497 35.4938 17.7244 34.8515C17.0992 34.208 16.8247 33.4142 16.901 32.4701C15.9329 32.4814 15.1272 32.1927 14.4837 31.6039C13.8402 31.014 13.5344 30.1917 13.5663 29.1371C12.5117 29.1485 11.6803 28.8467 11.0722 28.2317C10.464 27.6167 10.1872 26.8069 10.2419 25.8024C9.29208 25.8138 8.49714 25.5462 7.85708 24.9995C7.21816 24.4551 6.89871 23.6966 6.89871 22.724C6.89871 22.2855 6.98355 21.8471 7.15325 21.4086C7.32294 20.969 7.5735 20.5829 7.90491 20.2503L16.5012 11.6643L20.9122 16.0752C21.0568 16.2266 21.2356 16.3514 21.4486 16.4493C21.6616 16.5472 21.9013 16.5956 22.1678 16.5945C22.5334 16.5945 22.8562 16.467 23.1364 16.2118C23.4166 15.9567 23.5572 15.6242 23.5584 15.2142C23.5584 14.9477 23.5094 14.7085 23.4115 14.4967C23.3135 14.2837 23.1894 14.1049 23.039 13.9603L17.1624 8.08359C16.7387 7.65423 16.2985 7.33933 15.8418 7.13888C15.3851 6.93844 14.8852 6.83822 14.3419 6.83822C13.8055 6.83822 13.3181 6.93844 12.8796 7.13888C12.4422 7.33933 12.0089 7.65423 11.5795 8.08359L6.37937 13.294C6.01265 13.6585 5.71654 14.0941 5.49104 14.6009C5.26554 15.1065 5.14596 15.6287 5.13229 16.1674C5.1209 16.5535 5.15393 16.9242 5.23137 17.2796C5.30882 17.6349 5.43409 17.9697 5.60721 18.284L4.31229 19.579C4.02529 19.1211 3.80093 18.5938 3.63921 17.997C3.47748 17.4003 3.40289 16.791 3.41541 16.1691C3.42908 15.3924 3.58454 14.6493 3.88179 13.9398C4.17904 13.2302 4.60498 12.5976 5.15962 12.0418L10.3273 6.87409C10.923 6.28415 11.5533 5.84567 12.2185 5.55867C12.8836 5.27281 13.6028 5.12988 14.3761 5.12988C15.1494 5.12988 15.8623 5.27338 16.5149 5.56038C17.1686 5.84624 17.7905 6.28415 18.3804 6.87409L19.8667 8.36205L21.3563 6.87409C21.952 6.28415 22.5766 5.84567 23.2304 5.55867C23.8841 5.27281 24.5976 5.12988 25.3709 5.12988C26.1442 5.12988 26.8634 5.27338 27.5285 5.56038C28.1925 5.84624 28.8189 6.28415 29.4077 6.87409L35.773 13.2376C36.3618 13.8264 36.8162 14.4876 37.1362 15.221C37.4562 15.9545 37.6157 16.7078 37.6145 17.4811C37.6145 18.2556 37.4551 18.9691 37.1362 19.6217C36.8173 20.2743 36.3629 20.8961 35.773 21.4872L22.4531 34.7951C22.0989 35.1504 21.7128 35.409 21.2948 35.5707C20.878 35.7324 20.4395 35.8133 19.9794 35.8133" fill="#052EC0"/>
</svg>
