<svg width="41" height="42" viewBox="0 0 41 42" fill="none" xmlns="http://www.w3.org/2000/svg">
<g clip-path="url(#clip0_1_163)">
<path d="M2.7876 19.5024V34.1742H8.9991L9.31275 34.2111C15.0794 35.5559 18.9006 36.5256 20.8051 37.1262C23.3348 37.9237 24.2778 38.1184 25.9936 38.2332C27.2769 38.3214 28.7345 37.8273 29.3987 37.1508C29.7656 36.7777 30.0403 36.011 30.149 34.822C30.1712 34.5726 30.2603 34.3339 30.4067 34.1308C30.5532 33.9277 30.7517 33.7678 30.9813 33.6679C31.4917 33.4465 31.9161 33.0857 32.2707 32.5609C32.5987 32.0812 32.8119 31.1874 32.8509 29.8938C32.8573 29.6559 32.9246 29.4237 33.0462 29.2191C33.1679 29.0146 33.3399 28.8446 33.5458 28.7253C34.7389 28.0345 35.3293 27.2555 35.4523 26.3412C35.5876 25.3305 35.2596 24.1928 34.4007 22.8972C34.1991 22.5933 34.1241 22.2229 34.1914 21.8645C34.2588 21.5062 34.4633 21.1883 34.7615 20.9784C35.5835 20.4003 36.0345 19.5967 36.1473 18.4569C36.3277 16.6406 35.1694 15.2978 32.5475 15.0293C30.2122 14.7974 27.8543 14.994 25.5898 15.6094C25.3329 15.6766 25.0621 15.6689 24.8094 15.5874C24.5567 15.5059 24.3325 15.3539 24.1633 15.1494C23.994 14.9448 23.8867 14.6961 23.8539 14.4326C23.8212 14.1691 23.8644 13.9017 23.9785 13.6619C25.0035 11.493 25.5734 9.70339 25.7066 8.31759C25.8809 6.47874 25.4565 5.14624 24.4643 4.04744C23.712 3.21514 22.5086 2.73954 22.0576 2.83794C21.4631 2.96504 21.0757 3.30944 20.5714 4.51484C20.2741 5.22824 20.1306 5.83504 19.8846 7.25159C19.6489 8.59639 19.5197 9.20319 19.2512 9.99859C18.4414 12.4094 16.455 14.9083 13.7879 16.6324C11.9172 17.8365 9.89177 18.7813 7.76705 19.4409C7.63408 19.4811 7.49598 19.5018 7.35705 19.5024H2.7876ZM2.7015 36.9684C2.03935 36.9868 1.44485 36.8392 0.946704 36.4907C0.311204 36.0459 0.0119043 35.3448 0.00575428 34.5371L0.0119043 19.5249C-0.0577957 18.7254 0.177954 17.9915 0.735554 17.4462C1.2583 16.9337 1.94095 16.6918 2.66255 16.7082H7.1418C8.95376 16.131 10.6812 15.3162 12.2791 14.2851C14.4275 12.8952 16.0101 10.9026 16.6149 9.10684C16.8219 8.48774 16.9326 7.97524 17.1417 6.76984C17.4246 5.15239 17.6009 4.40004 18.0068 3.43244C18.8473 1.41934 19.9502 0.435335 21.4713 0.105285C22.9678 -0.218615 25.147 0.644435 26.5246 2.16964C28.0518 3.85884 28.7263 5.97239 28.4762 8.58409C28.3682 9.70475 28.058 10.9648 27.5455 12.3643C29.2957 12.109 31.0707 12.0705 32.8304 12.2495C36.9447 12.6697 39.2551 15.3491 38.9189 18.7357C38.7713 20.1953 38.2424 21.4355 37.3424 22.4093C38.0989 23.8668 38.4002 25.308 38.2116 26.7143C37.9943 28.3338 37.0923 29.6827 35.5917 30.7302C35.4749 32.1509 35.1489 33.2845 34.5708 34.1332C34.1139 34.8177 33.5198 35.3999 32.8263 35.8429C32.6049 37.2451 32.1395 38.3419 31.379 39.1127C30.1182 40.396 27.8653 41.1606 25.8071 41.0212C23.8534 40.89 22.6972 40.6522 19.9707 39.7912C18.1729 39.2234 14.4501 38.2804 8.8392 36.9684H2.7015ZM6.18855 18.8648C6.18801 18.6814 6.22367 18.4997 6.29349 18.3301C6.3633 18.1605 6.4659 18.0064 6.59539 17.8765C6.72489 17.7466 6.87875 17.6435 7.04814 17.5732C7.21754 17.5029 7.39915 17.4667 7.58255 17.4667C7.76562 17.4673 7.94678 17.5039 8.1157 17.5744C8.28463 17.645 8.438 17.7481 8.56706 17.8779C8.69613 18.0078 8.79836 18.1617 8.86791 18.3311C8.93747 18.5004 8.97299 18.6818 8.97245 18.8648V34.6047C8.97272 34.7878 8.93693 34.9691 8.86713 35.1384C8.79732 35.3076 8.69487 35.4614 8.56561 35.591C8.43636 35.7207 8.28283 35.8236 8.11381 35.8939C7.94478 35.9642 7.76357 36.0005 7.5805 36.0008C7.39744 36.0005 7.21622 35.9642 7.0472 35.8939C6.87817 35.8236 6.72465 35.7207 6.5954 35.591C6.46614 35.4614 6.36369 35.3076 6.29388 35.1384C6.22407 34.9691 6.18828 34.7878 6.18855 34.6047V18.8648Z" fill="#052EC0"/>
</g>
<defs>
<clipPath id="clip0_1_163">
<rect width="41" height="41" fill="white" transform="translate(0 0.0375977)"/>
</clipPath>
</defs>
</svg>
