<svg width="41" height="42" viewBox="0 0 41 42" fill="none" xmlns="http://www.w3.org/2000/svg">
<path d="M36.0458 21.3919L38.4375 23.8007L27.2821 35.0586L21.3542 29.0794L23.7458 26.6707L27.2821 30.224L36.0458 21.3919ZM18.7917 6.87109C20.604 6.87109 22.3421 7.59103 23.6236 8.87253C24.9051 10.154 25.625 11.8921 25.625 13.7044C25.625 15.5167 24.9051 17.2548 23.6236 18.5363C22.3421 19.8178 20.604 20.5378 18.7917 20.5378C16.9794 20.5378 15.2413 19.8178 13.9598 18.5363C12.6783 17.2548 11.9583 15.5167 11.9583 13.7044C11.9583 11.8921 12.6783 10.154 13.9598 8.87253C15.2413 7.59103 16.9794 6.87109 18.7917 6.87109ZM18.7917 10.2878C17.8855 10.2878 17.0165 10.6477 16.3757 11.2885C15.735 11.9292 15.375 12.7983 15.375 13.7044C15.375 14.6106 15.735 15.4796 16.3757 16.1204C17.0165 16.7611 17.8855 17.1211 18.7917 17.1211C19.6978 17.1211 20.5669 16.7611 21.2076 16.1204C21.8484 15.4796 22.2083 14.6106 22.2083 13.7044C22.2083 12.7983 21.8484 11.9292 21.2076 11.2885C20.5669 10.6477 19.6978 10.2878 18.7917 10.2878ZM18.7917 22.2461C19.9533 22.2461 21.3542 22.3998 22.9088 22.6903L20.0558 25.5432L18.7917 25.4919C13.7179 25.4919 8.37083 27.9861 8.37083 29.0794V30.9586H18.9625L22.2083 34.2044H5.125V29.0794C5.125 24.5353 14.2304 22.2461 18.7917 22.2461Z" fill="#052EC0"/>
</svg>
