<svg width="91" height="91" viewBox="0 0 91 91" fill="none" xmlns="http://www.w3.org/2000/svg">
<g clip-path="url(#clip0_1_22)">
<path d="M60.668 60.6668C60.668 56.477 48.7849 53.0835 34.1263 53.0835M60.668 60.6668C60.668 64.8566 48.7849 68.2502 34.1263 68.2502C19.4677 68.2502 7.58464 64.8566 7.58464 60.6668M60.668 60.6668V79.3863C60.668 83.705 48.7849 87.2085 34.1263 87.2085C19.4677 87.2085 7.58464 83.7088 7.58464 79.3863V60.6668M60.668 60.6668C75.1673 60.6668 87.2096 56.9245 87.2096 53.0835V15.1668M34.1263 53.0835C19.4677 53.0835 7.58464 56.477 7.58464 60.6668M34.1263 53.0835C17.3747 53.0835 3.79297 49.3411 3.79297 45.5002V26.5418M34.1263 18.9585C17.3747 18.9585 3.79297 22.352 3.79297 26.5418M3.79297 26.5418C3.79297 30.7316 17.3747 34.1252 34.1263 34.1252C34.1263 37.9661 46.4606 41.7085 60.9599 41.7085C75.4593 41.7085 87.2096 37.9661 87.2096 34.1252M87.2096 15.1668C87.2096 10.977 75.4555 7.5835 60.9599 7.5835C46.4644 7.5835 34.7102 10.977 34.7102 15.1668M87.2096 15.1668C87.2096 19.3566 75.4555 22.7502 60.9599 22.7502C46.4644 22.7502 34.7102 19.3566 34.7102 15.1668M34.7102 15.1668V53.7129" stroke="#F2F3F5" stroke-width="7.58333"/>
</g>
<defs>
<clipPath id="clip0_1_22">
<rect width="91" height="91" fill="white"/>
</clipPath>
</defs>
</svg>
