<svg width="110" height="110" viewBox="0 0 110 110" fill="none" xmlns="http://www.w3.org/2000/svg">
<path d="M11.579 88V104.5C11.579 105.959 10.969 107.358 9.88326 108.389C8.79752 109.421 7.32495 110 5.78948 110C4.25401 110 2.78144 109.421 1.6957 108.389C0.609961 107.358 0 105.959 0 104.5V88C0 86.5413 0.609961 85.1424 1.6957 84.1109C2.78144 83.0795 4.25401 82.5 5.78948 82.5C7.32495 82.5 8.79752 83.0795 9.88326 84.1109C10.969 85.1424 11.579 86.5413 11.579 88ZM40.5264 66C40.5264 64.5413 39.9164 63.1424 38.8307 62.1109C37.7449 61.0795 36.2723 60.5 34.7369 60.5C33.2014 60.5 31.7288 61.0795 30.6431 62.1109C29.5574 63.1424 28.9474 64.5413 28.9474 66V104.5C28.9474 105.959 29.5574 107.358 30.6431 108.389C31.7288 109.421 33.2014 110 34.7369 110C36.2723 110 37.7449 109.421 38.8307 108.389C39.9164 107.358 40.5264 105.959 40.5264 104.5V66ZM63.6843 71.5C65.2197 71.5 66.6923 72.0795 67.7781 73.1109C68.8638 74.1424 69.4738 75.5413 69.4738 77V104.5C69.4738 105.959 68.8638 107.358 67.7781 108.389C66.6923 109.421 65.2197 110 63.6843 110C62.1488 110 60.6762 109.421 59.5905 108.389C58.5048 107.358 57.8948 105.959 57.8948 104.5V77C57.8948 75.5413 58.5048 74.1424 59.5905 73.1109C60.6762 72.0795 62.1488 71.5 63.6843 71.5ZM98.4212 49.5C98.4212 48.0413 97.8112 46.6424 96.7255 45.6109C95.6397 44.5795 94.1672 44 92.6317 44C91.0962 44 89.6236 44.5795 88.5379 45.6109C87.4522 46.6424 86.8422 48.0413 86.8422 49.5V104.5C86.8422 105.959 87.4522 107.358 88.5379 108.389C89.6236 109.421 91.0962 110 92.6317 110C94.1672 110 95.6397 109.421 96.7255 108.389C97.8112 107.358 98.4212 105.959 98.4212 104.5V49.5Z" fill="url(#paint0_linear_1_279)"/>
<path d="M81.0519 11C79.5164 11 78.0438 10.4205 76.9581 9.38909C75.8724 8.35764 75.2624 6.95869 75.2624 5.5C75.2624 4.04131 75.8724 2.64236 76.9581 1.61091C78.0438 0.579463 79.5164 0 81.0519 0H104.21C105.745 0 107.218 0.579463 108.304 1.61091C109.389 2.64236 109.999 4.04131 109.999 5.5V27.5C109.999 28.9587 109.389 30.3576 108.304 31.3891C107.218 32.4206 105.745 33 104.21 33C102.674 33 101.202 32.4206 100.116 31.3891C99.0303 30.3576 98.4203 28.9587 98.4203 27.5V18.777L64.8819 50.6385C63.7962 51.6696 62.3239 52.2488 60.7887 52.2488C59.2536 52.2488 57.7812 51.6696 56.6956 50.6385L40.5255 35.277L9.88181 64.3885C8.7899 65.3904 7.32747 65.9448 5.80948 65.9322C4.2915 65.9197 2.83943 65.3413 1.76601 64.3215C0.692596 63.3018 0.0837222 61.9223 0.0705314 60.4802C0.0573405 59.0381 0.640887 57.6488 1.69549 56.6115L36.4324 23.6115C37.5181 22.5804 38.9904 22.0012 40.5255 22.0012C42.0607 22.0012 43.533 22.5804 44.6187 23.6115L60.7887 38.973L90.234 11H81.0519Z" fill="url(#paint1_linear_1_279)"/>
<defs>
<linearGradient id="paint0_linear_1_279" x1="104.842" y1="40.194" x2="-8.87143" y2="105.754" gradientUnits="userSpaceOnUse">
<stop stop-color="#0094F0"/>
<stop offset="1" stop-color="#2764E7"/>
</linearGradient>
<linearGradient id="paint1_linear_1_279" x1="3.86654" y1="66" x2="108.537" y2="-7.51165" gradientUnits="userSpaceOnUse">
<stop stop-color="#22918B"/>
<stop offset="1" stop-color="#20AC9D"/>
</linearGradient>
</defs>
</svg>
