<svg width="121" height="121" viewBox="0 0 121 121" fill="none" xmlns="http://www.w3.org/2000/svg">
<path d="M33.2745 18.186C30.8676 18.186 28.5594 19.1421 26.8575 20.844C25.1556 22.5459 24.1995 24.8542 24.1995 27.261V99.861C24.1995 102.268 25.1556 104.576 26.8575 106.278C28.5594 107.98 30.8676 108.936 33.2745 108.936H66.973L96.7995 81.2452V27.261C96.7995 24.8542 95.8434 22.5459 94.1415 20.844C92.4396 19.1421 90.1313 18.186 87.7245 18.186H33.2745Z" fill="url(#paint0_linear_1_282)"/>
<path d="M36.2969 51.461C36.2969 50.6588 36.6156 49.8893 37.1829 49.322C37.7502 48.7547 38.5196 48.436 39.3219 48.436H81.6719C82.4742 48.436 83.2436 48.7547 83.8109 49.322C84.3782 49.8893 84.6969 50.6588 84.6969 51.461C84.6969 52.2633 84.3782 53.0327 83.8109 53.6C83.2436 54.1673 82.4742 54.486 81.6719 54.486H39.3219C38.5196 54.486 37.7502 54.1673 37.1829 53.6C36.6156 53.0327 36.2969 52.2633 36.2969 51.461Z" fill="url(#paint1_linear_1_282)" fill-opacity="0.9"/>
<path d="M36.2969 87.7613C36.2969 86.959 36.6156 86.1896 37.1829 85.6223C37.7502 85.055 38.5196 84.7363 39.3219 84.7363H81.6719C82.4742 84.7363 83.2436 85.055 83.8109 85.6223C84.3782 86.1896 84.6969 86.959 84.6969 87.7613C84.6969 88.5636 84.3782 89.333 83.8109 89.9003C83.2436 90.4676 82.4742 90.7863 81.6719 90.7863H39.3219C38.5196 90.7863 37.7502 90.4676 37.1829 89.9003C36.6156 89.333 36.2969 88.5636 36.2969 87.7613Z" fill="url(#paint2_linear_1_282)" fill-opacity="0.9"/>
<path d="M39.3219 66.5864C38.5196 66.5864 37.7502 66.9051 37.1829 67.4724C36.6156 68.0397 36.2969 68.8091 36.2969 69.6114C36.2969 70.4137 36.6156 71.1831 37.1829 71.7504C37.7502 72.3177 38.5196 72.6364 39.3219 72.6364H57.4719C58.2742 72.6364 59.0436 72.3177 59.6109 71.7504C60.1782 71.1831 60.4969 70.4137 60.4969 69.6114C60.4969 68.8091 60.1782 68.0397 59.6109 67.4724C59.0436 66.9051 58.2742 66.5864 57.4719 66.5864H39.3219Z" fill="url(#paint3_linear_1_282)" fill-opacity="0.9"/>
<path d="M33.2745 18.1499C30.8676 18.1499 28.5594 19.106 26.8575 20.8079C25.1556 22.5098 24.1995 24.8181 24.1995 27.2249V99.8249C24.1995 102.232 25.1556 104.54 26.8575 106.242C28.5594 107.944 30.8676 108.9 33.2745 108.9H66.973L96.7995 81.2091V27.2249C96.7995 24.8181 95.8434 22.5098 94.1415 20.8079C92.4396 19.106 90.1313 18.1499 87.7245 18.1499H33.2745Z" fill="url(#paint4_radial_1_282)" fill-opacity="0.5"/>
<path d="M33.2745 18.1499C30.8676 18.1499 28.5594 19.106 26.8575 20.8079C25.1556 22.5098 24.1995 24.8181 24.1995 27.2249V99.8249C24.1995 102.232 25.1556 104.54 26.8575 106.242C28.5594 107.944 30.8676 108.9 33.2745 108.9H66.973L96.7995 81.2091V27.2249C96.7995 24.8181 95.8434 22.5098 94.1415 20.8079C92.4396 19.106 90.1313 18.1499 87.7245 18.1499H33.2745Z" fill="url(#paint5_radial_1_282)" fill-opacity="0.4"/>
<path d="M42.3521 21.1751C42.3521 23.5819 43.3082 25.8902 45.0101 27.5921C46.7119 29.294 49.0202 30.2501 51.4271 30.2501H69.5771C71.9839 30.2501 74.2922 29.294 75.994 27.5921C77.6959 25.8902 78.6521 23.5819 78.6521 21.1751C78.6521 18.7683 77.6959 16.46 75.994 14.7581C74.2922 13.0562 71.9839 12.1001 69.5771 12.1001H51.4271C49.0202 12.1001 46.7119 13.0562 45.0101 14.7581C43.3082 16.46 42.3521 18.7683 42.3521 21.1751Z" fill="url(#paint6_linear_1_282)"/>
<path d="M86.8243 72.6001H102.796V88.6084L82.4018 109.033C80.699 110.736 78.5662 111.944 76.2308 112.53L67.18 114.799C66.2786 115.023 65.3347 115.009 64.4399 114.761C63.5452 114.512 62.73 114.036 62.0736 113.379C61.4172 112.722 60.9419 111.906 60.6939 111.011C60.4458 110.116 60.4335 109.172 60.6581 108.271L62.9268 99.208C63.5101 96.8711 64.7166 94.7362 66.4177 93.0309L86.8243 72.6001Z" fill="url(#paint7_linear_1_282)"/>
<path d="M81.579 109.765C80.0285 111.075 78.1991 112.012 76.2308 112.506L67.18 114.775C66.2786 114.998 65.3347 114.985 64.4399 114.736C63.5452 114.487 62.73 114.011 62.0736 113.354C61.4172 112.697 60.9419 111.882 60.6939 110.987C60.4458 110.092 60.4335 109.148 60.6581 108.247L62.9208 99.1837C63.4048 97.2598 64.3062 95.4751 65.5586 93.9565C66.4729 97.8311 68.4609 101.369 71.2945 104.166C74.1281 106.962 77.6926 108.903 81.579 109.765Z" fill="url(#paint8_linear_1_282)"/>
<path d="M87.9634 71.5108L95.6469 63.8152C96.6972 62.7653 97.944 61.9325 99.3162 61.3644C100.688 60.7963 102.159 60.5041 103.644 60.5044C105.129 60.5047 106.6 60.7975 107.972 61.3661C109.344 61.9346 110.59 62.7679 111.64 63.8182C112.69 64.8685 113.523 66.1154 114.091 67.4875C114.659 68.8597 114.951 70.3303 114.951 71.8154C114.951 73.3005 114.658 74.771 114.089 76.143C113.521 77.5149 112.687 78.7615 111.637 79.8114L104.534 86.9201L87.9634 71.5108Z" fill="url(#paint9_linear_1_282)"/>
<path d="M108.907 82.5646C104.983 81.6964 101.387 79.7295 98.5395 76.8937C95.692 74.058 93.7102 70.4705 92.8257 66.5503L86.7817 72.6003C87.6662 76.5205 89.648 80.108 92.4956 82.9437C95.3431 85.7795 98.9388 87.7464 102.863 88.6146L108.907 82.5646Z" fill="url(#paint10_linear_1_282)"/>
<defs>
<linearGradient id="paint0_linear_1_282" x1="24.1995" y1="27.261" x2="96.7995" y2="108.936" gradientUnits="userSpaceOnUse">
<stop stop-color="#36DFF1"/>
<stop offset="1" stop-color="#0094F0"/>
</linearGradient>
<linearGradient id="paint1_linear_1_282" x1="66.5469" y1="90.786" x2="36.2969" y2="48.436" gradientUnits="userSpaceOnUse">
<stop stop-color="#9DEAFF"/>
<stop offset="1" stop-color="white"/>
</linearGradient>
<linearGradient id="paint2_linear_1_282" x1="66.5469" y1="90.7863" x2="36.2969" y2="48.4363" gradientUnits="userSpaceOnUse">
<stop stop-color="#9DEAFF"/>
<stop offset="1" stop-color="white"/>
</linearGradient>
<linearGradient id="paint3_linear_1_282" x1="66.5469" y1="90.7864" x2="36.2969" y2="48.4364" gradientUnits="userSpaceOnUse">
<stop stop-color="#9DEAFF"/>
<stop offset="1" stop-color="white"/>
</linearGradient>
<radialGradient id="paint4_radial_1_282" cx="0" cy="0" r="1" gradientUnits="userSpaceOnUse" gradientTransform="translate(57.4745 15.1249) scale(33.275 29.5659)">
<stop stop-color="#0A1852"/>
<stop offset="1" stop-color="#0A1852" stop-opacity="0"/>
</radialGradient>
<radialGradient id="paint5_radial_1_282" cx="0" cy="0" r="1" gradientUnits="userSpaceOnUse" gradientTransform="translate(85.4621 83.694) rotate(133.958) scale(49.0268 18.313)">
<stop stop-color="#0A1852"/>
<stop offset="1" stop-color="#0A1852" stop-opacity="0"/>
</radialGradient>
<linearGradient id="paint6_linear_1_282" x1="60.5021" y1="30.2501" x2="60.5021" y2="12.1001" gradientUnits="userSpaceOnUse">
<stop stop-color="#FAB500"/>
<stop offset="1" stop-color="#FFE06B"/>
</linearGradient>
<linearGradient id="paint7_linear_1_282" x1="71.7175" y1="82.994" x2="92.475" y2="103.752" gradientUnits="userSpaceOnUse">
<stop stop-color="#FFA43D"/>
<stop offset="1" stop-color="#FB5937"/>
</linearGradient>
<linearGradient id="paint8_linear_1_282" x1="57.4758" y1="99.8008" x2="72.6008" y2="114.908" gradientUnits="userSpaceOnUse">
<stop offset="0.255" stop-color="#FFD394"/>
<stop offset="1" stop-color="#FF921F"/>
</linearGradient>
<linearGradient id="paint9_linear_1_282" x1="109.302" y1="65.9992" x2="99.5491" y2="75.3586" gradientUnits="userSpaceOnUse">
<stop stop-color="#F97DBD"/>
<stop offset="1" stop-color="#DD3CE2"/>
</linearGradient>
<linearGradient id="paint10_linear_1_282" x1="98.2223" y1="81.6511" x2="82.6072" y2="74.8025" gradientUnits="userSpaceOnUse">
<stop stop-color="#FF921F"/>
<stop offset="1" stop-color="#FFE994"/>
</linearGradient>
</defs>
</svg>
